<svg width="233" height="64" viewBox="0 0 233 64" fill="none" xmlns="http://www.w3.org/2000/svg">
<g filter="url(#filter0_d)">
<path d="M5.2 10H38.8C41.11 10 42.979 11.89 42.979 14.2L43 52L34.6 43.6H5.2C2.89 43.6 1 41.71 1 39.4V14.2C1 11.89 2.89 10 5.2 10ZM28.3 28.9H32.5V24.7H28.3V28.9ZM19.9 28.9H24.1V24.7H19.9V28.9ZM11.5 28.9H15.7V24.7H11.5V28.9Z" fill="white"/>
<path d="M42.229 14.2004V14.2C42.229 12.2993 40.6909 10.75 38.8 10.75H5.2C3.30421 10.75 1.75 12.3042 1.75 14.2V39.4C1.75 41.2958 3.30421 42.85 5.2 42.85H34.6H34.9107L35.1303 43.0697L42.249 50.1883L42.229 14.2004ZM28.3 29.65H27.55V28.9V24.7V23.95H28.3H32.5H33.25V24.7V28.9V29.65H32.5H28.3ZM19.9 29.65H19.15V28.9V24.7V23.95H19.9H24.1H24.85V24.7V28.9V29.65H24.1H19.9ZM11.5 29.65H10.75V28.9V24.7V23.95H11.5H15.7H16.45V24.7V28.9V29.65H15.7H11.5Z" stroke="#343A40" stroke-width="1.5"/>
</g>
<path d="M47.8867 25.9961C50.1289 23.2435 53.0456 21.8672 56.6367 21.8672C62.8893 21.8672 66.043 25.3945 66.0977 32.4492V52H61.0391V32.4219C61.0208 30.2891 60.5286 28.7122 59.5625 27.6914C58.6146 26.6706 57.1289 26.1602 55.1055 26.1602C53.4648 26.1602 52.0247 26.5977 50.7852 27.4727C49.5456 28.3477 48.5794 29.4961 47.8867 30.918V52H42.8281V10H47.8867V25.9961ZM83.1492 52.5469C79.1388 52.5469 75.8758 51.2344 73.3602 48.6094C70.8445 45.9661 69.5867 42.4388 69.5867 38.0273V37.0977C69.5867 34.1628 70.1427 31.5469 71.2547 29.25C72.3849 26.9349 73.9526 25.1302 75.9578 23.8359C77.9813 22.5234 80.1688 21.8672 82.5203 21.8672C86.3667 21.8672 89.3563 23.1341 91.4891 25.668C93.6219 28.2018 94.6883 31.8294 94.6883 36.5508V38.6562H74.6453C74.7182 41.5729 75.5659 43.9336 77.1883 45.7383C78.8289 47.5247 80.907 48.418 83.4227 48.418C85.2091 48.418 86.7221 48.0534 87.9617 47.3242C89.2013 46.5951 90.2859 45.6289 91.2156 44.4258L94.3055 46.832C91.8263 50.6419 88.1076 52.5469 83.1492 52.5469ZM82.5203 26.0234C80.4786 26.0234 78.7651 26.7708 77.3797 28.2656C75.9943 29.7422 75.1375 31.8203 74.8094 34.5H89.6297V34.1172C89.4839 31.5469 88.7911 29.5599 87.5516 28.1562C86.312 26.7344 84.6349 26.0234 82.5203 26.0234ZM112.068 26.9531C111.302 26.8255 110.473 26.7617 109.58 26.7617C106.262 26.7617 104.011 28.1745 102.826 31V52H97.7672V22.4141H102.689L102.771 25.832C104.43 23.1888 106.782 21.8672 109.826 21.8672C110.81 21.8672 111.558 21.9948 112.068 22.25V26.9531ZM118.702 22.4141L118.838 25.6953C121.008 23.1432 123.933 21.8672 127.616 21.8672C131.754 21.8672 134.57 23.4531 136.065 26.625C137.049 25.2031 138.325 24.0547 139.893 23.1797C141.479 22.3047 143.347 21.8672 145.498 21.8672C151.988 21.8672 155.287 25.3034 155.397 32.1758V52H150.338V32.4766C150.338 30.362 149.855 28.7852 148.889 27.7461C147.923 26.6888 146.301 26.1602 144.022 26.1602C142.144 26.1602 140.586 26.7253 139.346 27.8555C138.107 28.9674 137.386 30.4714 137.186 32.3672V52H132.1V32.6133C132.1 28.3112 129.995 26.1602 125.784 26.1602C122.466 26.1602 120.196 27.5729 118.975 30.3984V52H113.916V22.4141H118.702ZM172.53 52.5469C168.52 52.5469 165.257 51.2344 162.741 48.6094C160.226 45.9661 158.968 42.4388 158.968 38.0273V37.0977C158.968 34.1628 159.524 31.5469 160.636 29.25C161.766 26.9349 163.334 25.1302 165.339 23.8359C167.363 22.5234 169.55 21.8672 171.902 21.8672C175.748 21.8672 178.738 23.1341 180.87 25.668C183.003 28.2018 184.07 31.8294 184.07 36.5508V38.6562H164.027C164.099 41.5729 164.947 43.9336 166.57 45.7383C168.21 47.5247 170.288 48.418 172.804 48.418C174.59 48.418 176.103 48.0534 177.343 47.3242C178.583 46.5951 179.667 45.6289 180.597 44.4258L183.687 46.832C181.208 50.6419 177.489 52.5469 172.53 52.5469ZM171.902 26.0234C169.86 26.0234 168.146 26.7708 166.761 28.2656C165.376 29.7422 164.519 31.8203 164.191 34.5H179.011V34.1172C178.865 31.5469 178.172 29.5599 176.933 28.1562C175.693 26.7344 174.016 26.0234 171.902 26.0234ZM204.375 44.1523C204.375 42.7852 203.855 41.7279 202.816 40.9805C201.796 40.2148 200 39.5586 197.43 39.0117C194.878 38.4648 192.845 37.8086 191.332 37.043C189.837 36.2773 188.725 35.3659 187.996 34.3086C187.285 33.2513 186.93 31.9935 186.93 30.5352C186.93 28.1107 187.951 26.0599 189.992 24.3828C192.052 22.7057 194.677 21.8672 197.867 21.8672C201.221 21.8672 203.938 22.7331 206.016 24.4648C208.112 26.1966 209.16 28.4115 209.16 31.1094H204.074C204.074 29.724 203.482 28.5299 202.297 27.5273C201.13 26.5247 199.654 26.0234 197.867 26.0234C196.026 26.0234 194.586 26.4245 193.547 27.2266C192.508 28.0286 191.988 29.0768 191.988 30.3711C191.988 31.5924 192.471 32.513 193.438 33.1328C194.404 33.7526 196.145 34.3451 198.66 34.9102C201.194 35.4753 203.245 36.1497 204.812 36.9336C206.38 37.7174 207.538 38.6654 208.285 39.7773C209.051 40.8711 209.434 42.2109 209.434 43.7969C209.434 46.4401 208.376 48.5638 206.262 50.168C204.147 51.7539 201.404 52.5469 198.031 52.5469C195.661 52.5469 193.565 52.1276 191.742 51.2891C189.919 50.4505 188.488 49.2839 187.449 47.7891C186.428 46.276 185.918 44.6445 185.918 42.8945H190.977C191.068 44.5898 191.742 45.9388 193 46.9414C194.276 47.9258 195.953 48.418 198.031 48.418C199.945 48.418 201.477 48.0352 202.625 47.2695C203.792 46.4857 204.375 45.4466 204.375 44.1523Z" fill="#7B7979"/>
<rect x="8" y="18" width="28" height="17" fill="white"/>
<path d="M27.8 28.95H27.05V28.2V24V23.25H27.8H32H32.75V24V28.2V28.95H32H27.8ZM19.4 28.95H18.65V28.2V24V23.25H19.4H23.6H24.35V24V28.2V28.95H23.6H19.4ZM11 28.95H10.25V28.2V24V23.25H11H15.2H15.95V24V28.2V28.95H15.2H11Z" fill="#92CBC5" stroke="#343A40" stroke-width="1.5"/>
<defs>
<filter id="filter0_d" x="0" y="10" width="44" height="47" filterUnits="userSpaceOnUse" color-interpolation-filters="sRGB">
<feFlood flood-opacity="0" result="BackgroundImageFix"/>
<feColorMatrix in="SourceAlpha" type="matrix" values="0 0 0 0 0 0 0 0 0 0 0 0 0 0 0 0 0 0 127 0"/>
<feOffset dy="4"/>
<feGaussianBlur stdDeviation="0.5"/>
<feColorMatrix type="matrix" values="0 0 0 0 0 0 0 0 0 0 0 0 0 0 0 0 0 0 0.25 0"/>
<feBlend mode="darken" in2="BackgroundImageFix" result="effect1_dropShadow"/>
<feBlend mode="normal" in="SourceGraphic" in2="effect1_dropShadow" result="shape"/>
</filter>
</defs>
</svg>
