<svg width="242" height="66" viewBox="0 0 242 66" fill="none" xmlns="http://www.w3.org/2000/svg">
<g filter="url(#filter0_d)">
<path d="M14.2 10H47.8C50.11 10 51.979 11.89 51.979 14.2L52 52L43.6 43.6H14.2C11.89 43.6 10 41.71 10 39.4V14.2C10 11.89 11.89 10 14.2 10ZM37.3 28.9H41.5V24.7H37.3V28.9ZM28.9 28.9H33.1V24.7H28.9V28.9ZM20.5 28.9H24.7V24.7H20.5V28.9Z" fill="white"/>
<path d="M51.229 14.2004V14.2C51.229 12.2993 49.6909 10.75 47.8 10.75H14.2C12.3042 10.75 10.75 12.3042 10.75 14.2V39.4C10.75 41.2958 12.3042 42.85 14.2 42.85H43.6H43.9107L44.1303 43.0697L51.249 50.1883L51.229 14.2004ZM37.3 29.65H36.55V28.9V24.7V23.95H37.3H41.5H42.25V24.7V28.9V29.65H41.5H37.3ZM28.9 29.65H28.15V28.9V24.7V23.95H28.9H33.1H33.85V24.7V28.9V29.65H33.1H28.9ZM20.5 29.65H19.75V28.9V24.7V23.95H20.5H24.7H25.45V24.7V28.9V29.65H24.7H20.5Z" stroke="#343A40" stroke-width="1.5"/>
</g>
<path d="M56.8867 25.9961C59.1289 23.2435 62.0456 21.8672 65.6367 21.8672C71.8893 21.8672 75.043 25.3945 75.0977 32.4492V52H70.0391V32.4219C70.0208 30.2891 69.5286 28.7122 68.5625 27.6914C67.6146 26.6706 66.1289 26.1602 64.1055 26.1602C62.4648 26.1602 61.0247 26.5977 59.7852 27.4727C58.5456 28.3477 57.5794 29.4961 56.8867 30.918V52H51.8281V10H56.8867V25.9961ZM92.1492 52.5469C88.1388 52.5469 84.8758 51.2344 82.3602 48.6094C79.8445 45.9661 78.5867 42.4388 78.5867 38.0273V37.0977C78.5867 34.1628 79.1427 31.5469 80.2547 29.25C81.3849 26.9349 82.9526 25.1302 84.9578 23.8359C86.9813 22.5234 89.1688 21.8672 91.5203 21.8672C95.3667 21.8672 98.3563 23.1341 100.489 25.668C102.622 28.2018 103.688 31.8294 103.688 36.5508V38.6562H83.6453C83.7182 41.5729 84.5659 43.9336 86.1883 45.7383C87.8289 47.5247 89.907 48.418 92.4227 48.418C94.2091 48.418 95.7221 48.0534 96.9617 47.3242C98.2013 46.5951 99.2859 45.6289 100.216 44.4258L103.305 46.832C100.826 50.6419 97.1076 52.5469 92.1492 52.5469ZM91.5203 26.0234C89.4786 26.0234 87.7651 26.7708 86.3797 28.2656C84.9943 29.7422 84.1375 31.8203 83.8094 34.5H98.6297V34.1172C98.4839 31.5469 97.7911 29.5599 96.5516 28.1562C95.312 26.7344 93.6349 26.0234 91.5203 26.0234ZM121.068 26.9531C120.302 26.8255 119.473 26.7617 118.58 26.7617C115.262 26.7617 113.011 28.1745 111.826 31V52H106.767V22.4141H111.689L111.771 25.832C113.43 23.1888 115.782 21.8672 118.826 21.8672C119.81 21.8672 120.558 21.9948 121.068 22.25V26.9531ZM127.702 22.4141L127.838 25.6953C130.008 23.1432 132.933 21.8672 136.616 21.8672C140.754 21.8672 143.57 23.4531 145.065 26.625C146.049 25.2031 147.325 24.0547 148.893 23.1797C150.479 22.3047 152.347 21.8672 154.498 21.8672C160.988 21.8672 164.287 25.3034 164.397 32.1758V52H159.338V32.4766C159.338 30.362 158.855 28.7852 157.889 27.7461C156.923 26.6888 155.301 26.1602 153.022 26.1602C151.144 26.1602 149.586 26.7253 148.346 27.8555C147.107 28.9674 146.386 30.4714 146.186 32.3672V52H141.1V32.6133C141.1 28.3112 138.995 26.1602 134.784 26.1602C131.466 26.1602 129.196 27.5729 127.975 30.3984V52H122.916V22.4141H127.702ZM181.53 52.5469C177.52 52.5469 174.257 51.2344 171.741 48.6094C169.226 45.9661 167.968 42.4388 167.968 38.0273V37.0977C167.968 34.1628 168.524 31.5469 169.636 29.25C170.766 26.9349 172.334 25.1302 174.339 23.8359C176.363 22.5234 178.55 21.8672 180.902 21.8672C184.748 21.8672 187.738 23.1341 189.87 25.668C192.003 28.2018 193.07 31.8294 193.07 36.5508V38.6562H173.027C173.099 41.5729 173.947 43.9336 175.57 45.7383C177.21 47.5247 179.288 48.418 181.804 48.418C183.59 48.418 185.103 48.0534 186.343 47.3242C187.583 46.5951 188.667 45.6289 189.597 44.4258L192.687 46.832C190.208 50.6419 186.489 52.5469 181.53 52.5469ZM180.902 26.0234C178.86 26.0234 177.146 26.7708 175.761 28.2656C174.376 29.7422 173.519 31.8203 173.191 34.5H188.011V34.1172C187.865 31.5469 187.172 29.5599 185.933 28.1562C184.693 26.7344 183.016 26.0234 180.902 26.0234ZM213.375 44.1523C213.375 42.7852 212.855 41.7279 211.816 40.9805C210.796 40.2148 209 39.5586 206.43 39.0117C203.878 38.4648 201.845 37.8086 200.332 37.043C198.837 36.2773 197.725 35.3659 196.996 34.3086C196.285 33.2513 195.93 31.9935 195.93 30.5352C195.93 28.1107 196.951 26.0599 198.992 24.3828C201.052 22.7057 203.677 21.8672 206.867 21.8672C210.221 21.8672 212.938 22.7331 215.016 24.4648C217.112 26.1966 218.16 28.4115 218.16 31.1094H213.074C213.074 29.724 212.482 28.5299 211.297 27.5273C210.13 26.5247 208.654 26.0234 206.867 26.0234C205.026 26.0234 203.586 26.4245 202.547 27.2266C201.508 28.0286 200.988 29.0768 200.988 30.3711C200.988 31.5924 201.471 32.513 202.438 33.1328C203.404 33.7526 205.145 34.3451 207.66 34.9102C210.194 35.4753 212.245 36.1497 213.812 36.9336C215.38 37.7174 216.538 38.6654 217.285 39.7773C218.051 40.8711 218.434 42.2109 218.434 43.7969C218.434 46.4401 217.376 48.5638 215.262 50.168C213.147 51.7539 210.404 52.5469 207.031 52.5469C204.661 52.5469 202.565 52.1276 200.742 51.2891C198.919 50.4505 197.488 49.2839 196.449 47.7891C195.428 46.276 194.918 44.6445 194.918 42.8945H199.977C200.068 44.5898 200.742 45.9388 202 46.9414C203.276 47.9258 204.953 48.418 207.031 48.418C208.945 48.418 210.477 48.0352 211.625 47.2695C212.792 46.4857 213.375 45.4466 213.375 44.1523Z" fill="#343A40"/>
<defs>
<filter id="filter0_d" x="0" y="4" width="62" height="62" filterUnits="userSpaceOnUse" color-interpolation-filters="sRGB">
<feFlood flood-opacity="0" result="BackgroundImageFix"/>
<feColorMatrix in="SourceAlpha" type="matrix" values="0 0 0 0 0 0 0 0 0 0 0 0 0 0 0 0 0 0 127 0"/>
<feOffset dy="4"/>
<feGaussianBlur stdDeviation="5"/>
<feColorMatrix type="matrix" values="0 0 0 0 0 0 0 0 0 0 0 0 0 0 0 0 0 0 0.25 0"/>
<feBlend mode="darken" in2="BackgroundImageFix" result="effect1_dropShadow"/>
<feBlend mode="normal" in="SourceGraphic" in2="effect1_dropShadow" result="shape"/>
</filter>
</defs>
</svg>
