<svg width="452" height="111" viewBox="0 0 452 111" fill="none" xmlns="http://www.w3.org/2000/svg">
<g filter="url(#filter0_d)">
<path d="M17.8 19H80.2C84.49 19 87.961 22.51 87.961 26.8L88 97L72.4 81.4H17.8C13.51 81.4 10 77.89 10 73.6V26.8C10 22.51 13.51 19 17.8 19ZM60.7 54.1H68.5V46.3H60.7V54.1ZM45.1 54.1H52.9V46.3H45.1V54.1ZM29.5 54.1H37.3V46.3H29.5V54.1Z" fill="white"/>
<path d="M87.211 26.8004V26.8C87.211 22.9193 84.0709 19.75 80.2 19.75H17.8C13.9242 19.75 10.75 22.9242 10.75 26.8V73.6C10.75 77.4758 13.9242 80.65 17.8 80.65H72.4H72.7107L72.9303 80.8697L87.249 95.1883L87.211 26.8004ZM60.7 54.85H59.95V54.1V46.3V45.55H60.7H68.5H69.25V46.3V54.1V54.85H68.5H60.7ZM45.1 54.85H44.35V54.1V46.3V45.55H45.1H52.9H53.65V46.3V54.1V54.85H52.9H45.1ZM29.5 54.85H28.75V54.1V46.3V45.55H29.5H37.3H38.05V46.3V54.1V54.85H37.3H29.5Z" stroke="#343A40" stroke-width="1.5"/>
</g>
<path d="M97.5039 48.707C101.668 43.5951 107.085 41.0391 113.754 41.0391C125.366 41.0391 131.223 47.5898 131.324 60.6914V97H121.93V60.6406C121.896 56.6797 120.982 53.7513 119.188 51.8555C117.427 49.9596 114.668 49.0117 110.91 49.0117C107.863 49.0117 105.189 49.8242 102.887 51.4492C100.585 53.0742 98.7904 55.207 97.5039 57.8477V97H88.1094V19H97.5039V48.707ZM162.991 98.0156C155.543 98.0156 149.484 95.5781 144.812 90.7031C140.14 85.7943 137.804 79.2435 137.804 71.0508V69.3242C137.804 63.8737 138.836 59.0156 140.902 54.75C143.001 50.4505 145.912 47.099 149.636 44.6953C153.394 42.2578 157.456 41.0391 161.823 41.0391C168.967 41.0391 174.519 43.3919 178.48 48.0977C182.441 52.8034 184.421 59.5404 184.421 68.3086V72.2188H147.198C147.334 77.6354 148.908 82.0195 151.921 85.3711C154.968 88.6888 158.827 90.3477 163.499 90.3477C166.817 90.3477 169.627 89.6706 171.929 88.3164C174.231 86.9622 176.245 85.168 177.972 82.9336L183.71 87.4023C179.106 94.4779 172.2 98.0156 162.991 98.0156ZM161.823 48.7578C158.032 48.7578 154.849 50.1458 152.277 52.9219C149.704 55.6641 148.112 59.5234 147.503 64.5H175.027V63.7891C174.756 59.0156 173.469 55.3255 171.167 52.7188C168.865 50.0781 165.751 48.7578 161.823 48.7578ZM216.698 50.4844C215.276 50.2474 213.735 50.1289 212.077 50.1289C205.915 50.1289 201.734 52.7526 199.534 58V97H190.139V42.0547H199.28L199.432 48.4023C202.513 43.4935 206.88 41.0391 212.534 41.0391C214.362 41.0391 215.75 41.276 216.698 41.75V50.4844ZM229.017 42.0547L229.271 48.1484C233.3 43.4089 238.733 41.0391 245.572 41.0391C253.257 41.0391 258.487 43.9844 261.263 49.875C263.091 47.2344 265.461 45.1016 268.373 43.4766C271.318 41.8516 274.788 41.0391 278.783 41.0391C290.835 41.0391 296.962 47.4206 297.166 60.1836V97H287.771V60.7422C287.771 56.8151 286.874 53.8867 285.08 51.957C283.285 49.9935 280.272 49.0117 276.041 49.0117C272.554 49.0117 269.659 50.0612 267.357 52.1602C265.055 54.2253 263.718 57.0182 263.345 60.5391V97H253.9V60.9961C253.9 53.0065 249.99 49.0117 242.17 49.0117C236.008 49.0117 231.793 51.6354 229.525 56.8828V97H220.13V42.0547H229.017ZM328.985 98.0156C321.537 98.0156 315.477 95.5781 310.805 90.7031C306.134 85.7943 303.798 79.2435 303.798 71.0508V69.3242C303.798 63.8737 304.83 59.0156 306.895 54.75C308.994 50.4505 311.906 47.099 315.63 44.6953C319.387 42.2578 323.45 41.0391 327.817 41.0391C334.96 41.0391 340.512 43.3919 344.473 48.0977C348.434 52.8034 350.415 59.5404 350.415 68.3086V72.2188H313.192C313.328 77.6354 314.902 82.0195 317.915 85.3711C320.962 88.6888 324.821 90.3477 329.493 90.3477C332.811 90.3477 335.621 89.6706 337.923 88.3164C340.225 86.9622 342.239 85.168 343.966 82.9336L349.704 87.4023C345.1 94.4779 338.193 98.0156 328.985 98.0156ZM327.817 48.7578C324.026 48.7578 320.843 50.1458 318.27 52.9219C315.697 55.6641 314.106 59.5234 313.497 64.5H341.02V63.7891C340.749 59.0156 339.463 55.3255 337.161 52.7188C334.859 50.0781 331.744 48.7578 327.817 48.7578ZM388.125 82.4258C388.125 79.8867 387.16 77.9232 385.23 76.5352C383.335 75.1133 380 73.8945 375.227 72.8789C370.487 71.8633 366.712 70.6445 363.902 69.2227C361.126 67.8008 359.061 66.1081 357.707 64.1445C356.387 62.181 355.727 59.8451 355.727 57.1367C355.727 52.6341 357.622 48.8255 361.414 45.7109C365.24 42.5964 370.115 41.0391 376.039 41.0391C382.268 41.0391 387.312 42.6471 391.172 45.8633C395.065 49.0794 397.012 53.1927 397.012 58.2031H387.566C387.566 55.6302 386.466 53.4128 384.266 51.5508C382.099 49.6888 379.357 48.7578 376.039 48.7578C372.62 48.7578 369.945 49.5026 368.016 50.9922C366.086 52.4818 365.121 54.4284 365.121 56.832C365.121 59.1003 366.018 60.8099 367.812 61.9609C369.607 63.112 372.84 64.2122 377.512 65.2617C382.217 66.3112 386.026 67.5638 388.938 69.0195C391.849 70.4753 393.999 72.2357 395.387 74.3008C396.809 76.332 397.52 78.8203 397.52 81.7656C397.52 86.6745 395.556 90.6185 391.629 93.5977C387.702 96.543 382.607 98.0156 376.344 98.0156C371.943 98.0156 368.049 97.237 364.664 95.6797C361.279 94.1224 358.621 91.9557 356.691 89.1797C354.796 86.3698 353.848 83.3398 353.848 80.0898H363.242C363.411 83.2383 364.664 85.7435 367 87.6055C369.37 89.4336 372.484 90.3477 376.344 90.3477C379.898 90.3477 382.742 89.6367 384.875 88.2148C387.042 86.7591 388.125 84.8294 388.125 82.4258Z" fill="#EEEEEE"/>
<rect x="18" y="27" width="63.3636" height="41" fill="white"/>
<path d="M35.5825 51.4043H39.1333V54.0586H35.5825V60H32.313V54.0586H20.6587V52.1426L32.1196 34.4062H35.5825V51.4043ZM24.3501 51.4043H32.313V38.8535L31.9263 39.5566L24.3501 51.4043ZM56.3177 49.084C56.3177 52.8926 55.6673 55.7227 54.3665 57.5742C53.0657 59.4258 51.0325 60.3516 48.2669 60.3516C45.5364 60.3516 43.5149 59.4492 42.2024 57.6445C40.8899 55.8281 40.2103 53.1211 40.1634 49.5234V45.1816C40.1634 41.4199 40.8138 38.625 42.1146 36.7969C43.4153 34.9688 45.4544 34.0547 48.2317 34.0547C50.9856 34.0547 53.013 34.9395 54.3138 36.709C55.6146 38.4668 56.2825 41.1855 56.3177 44.8652V49.084ZM53.0657 44.6367C53.0657 41.8828 52.679 39.8789 51.9056 38.625C51.1321 37.3594 49.9075 36.7266 48.2317 36.7266C46.5677 36.7266 45.3548 37.3535 44.5931 38.6074C43.8313 39.8613 43.4388 41.7891 43.4153 44.3906V49.5938C43.4153 52.3594 43.8138 54.4043 44.6106 55.7285C45.4192 57.041 46.638 57.6973 48.2669 57.6973C49.8724 57.6973 51.0618 57.0762 51.8353 55.834C52.6204 54.5918 53.0306 52.6348 53.0657 49.9629V44.6367ZM72.4122 51.4043H75.963V54.0586H72.4122V60H69.1427V54.0586H57.4884V52.1426L68.9493 34.4062H72.4122V51.4043ZM61.1798 51.4043H69.1427V38.8535L68.756 39.5566L61.1798 51.4043Z" fill="#343A40"/>
<defs>
<filter id="filter0_d" x="0" y="13" width="98" height="98" filterUnits="userSpaceOnUse" color-interpolation-filters="sRGB">
<feFlood flood-opacity="0" result="BackgroundImageFix"/>
<feColorMatrix in="SourceAlpha" type="matrix" values="0 0 0 0 0 0 0 0 0 0 0 0 0 0 0 0 0 0 127 0"/>
<feOffset dy="4"/>
<feGaussianBlur stdDeviation="5"/>
<feColorMatrix type="matrix" values="0 0 0 0 0 0 0 0 0 0 0 0 0 0 0 0 0 0 0.25 0"/>
<feBlend mode="darken" in2="BackgroundImageFix" result="effect1_dropShadow"/>
<feBlend mode="normal" in="SourceGraphic" in2="effect1_dropShadow" result="shape"/>
</filter>
</defs>
</svg>
