<svg width="42" height="42" viewBox="0 0 42 42" fill="none" xmlns="http://www.w3.org/2000/svg">
<path d="M41.229 4.20042V4.2C41.229 2.29931 39.6909 0.75 37.8 0.75H4.2C2.30421 0.75 0.75 2.30421 0.75 4.2V29.4C0.75 31.2958 2.30421 32.85 4.2 32.85H33.6H33.9107L34.1303 33.0697L41.249 40.1883L41.229 4.20042ZM27.3 19.65H26.55V18.9V14.7V13.95H27.3H31.5H32.25V14.7V18.9V19.65H31.5H27.3ZM18.9 19.65H18.15V18.9V14.7V13.95H18.9H23.1H23.85V14.7V18.9V19.65H23.1H18.9ZM10.5 19.65H9.75V18.9V14.7V13.95H10.5H14.7H15.45V14.7V18.9V19.65H14.7H10.5Z" stroke="#E5E5E5" stroke-width="1.5"/>
</svg>
